<svg id="Laag_1" data-name="Laag 1" xmlns="http://www.w3.org/2000/svg" viewBox="0 0 1072.39 1072.39"><defs><style>.cls-1{fill:#fff;}</style></defs><path class="cls-1" d="M540,1076.19A536.33,536.33,0,0,1,331.28,46a536.33,536.33,0,0,1,417.44,988.1A533,533,0,0,1,540,1076.19ZM540,53.81A486.33,486.33,0,0,0,350.76,988,486.33,486.33,0,0,0,729.24,92,483.19,483.19,0,0,0,540,53.81Z" transform="translate(-3.8 -3.81)"/><path class="cls-1" d="M458.05,865.08H589V537.24h91.34l9.74-109.77H589V365c0-25.88,5.2-36.1,30.22-36.1h70.86V214.92H599.39c-97.41,0-141.34,42.92-141.34,125v87.52H390V538.61h68.1Z" transform="translate(-3.8 -3.81)"/></svg>