<svg id="Laag_1" data-name="Laag 1" xmlns="http://www.w3.org/2000/svg" viewBox="0 0 1072.39 1072.39"><defs><style>.cls-1{fill:#fff;}</style></defs><path class="cls-1" d="M540,1076.19A536.33,536.33,0,0,1,331.28,46a536.33,536.33,0,0,1,417.44,988.1A533,533,0,0,1,540,1076.19ZM540,53.81A486.33,486.33,0,0,0,350.76,988,486.33,486.33,0,0,0,729.24,92,483.19,483.19,0,0,0,540,53.81Z" transform="translate(-3.8 -3.81)"/><path class="cls-1" d="M540,310.21c74.84,0,83.71.29,113.26,1.64,27.32,1.24,42.17,5.81,52,9.65a92.89,92.89,0,0,1,53.19,53.19c3.84,9.89,8.41,24.72,9.65,52.05,1.35,29.56,1.64,38.42,1.64,113.26s-.29,83.71-1.64,113.26c-1.24,27.33-5.81,42.17-9.65,52a92.81,92.81,0,0,1-53.19,53.19c-9.88,3.85-24.73,8.41-52,9.66-29.55,1.34-38.41,1.63-113.26,1.63s-83.7-.29-113.26-1.63c-27.32-1.25-42.17-5.81-52-9.66a92.79,92.79,0,0,1-53.2-53.19c-3.84-9.88-8.4-24.72-9.65-52-1.35-29.55-1.63-38.41-1.63-113.26s.28-83.7,1.63-113.26c1.25-27.33,5.81-42.16,9.65-52.05a92.87,92.87,0,0,1,53.2-53.19c9.87-3.84,24.72-8.41,52-9.65,29.56-1.35,38.42-1.64,113.26-1.64m0-50.5c-76.12,0-85.67.33-115.56,1.69s-50.21,6.1-68,13a143.33,143.33,0,0,0-82,82c-6.93,17.82-11.67,38.2-13,68s-1.69,39.44-1.69,115.56.32,85.67,1.69,115.57,6.1,50.2,13,68a143.33,143.33,0,0,0,82,82c17.83,6.92,38.2,11.67,68,13s39.44,1.68,115.56,1.68,85.67-.32,115.57-1.68,50.2-6.11,68-13a143.31,143.31,0,0,0,82-82c6.92-17.83,11.66-38.2,13-68s1.68-39.44,1.68-115.57-.32-85.66-1.68-115.56-6.11-50.21-13-68a143.31,143.31,0,0,0-82-82c-17.83-6.93-38.2-11.67-68-13s-39.45-1.69-115.57-1.69" transform="translate(-3.8 -3.81)"/><path class="cls-1" d="M540,820.79c-75.76,0-85.7-.32-115.59-1.68-27.08-1.24-48.11-5.27-68.19-13.06A143.85,143.85,0,0,1,274,723.78c-7.8-20.07-11.83-41.1-13.06-68.19-1.36-29.86-1.69-39.79-1.69-115.59s.33-85.73,1.69-115.58c1.23-27.1,5.26-48.13,13.06-68.2A143.8,143.8,0,0,1,356.22,274c20.08-7.8,41.11-11.83,68.19-13.06,30-1.37,40-1.69,115.59-1.69s85.56.32,115.59,1.69c27.08,1.23,48.11,5.26,68.19,13.06A143.8,143.8,0,0,1,806,356.22c7.8,20.08,11.83,41.11,13.07,68.2,1.36,29.93,1.68,39.88,1.68,115.58s-.32,85.66-1.68,115.59c-1.24,27.08-5.27,48.11-13.07,68.19a143.85,143.85,0,0,1-82.26,82.27c-20.08,7.79-41.11,11.82-68.19,13.06C625.7,820.47,615.76,820.79,540,820.79Zm0-560.58c-75.57,0-85.53.32-115.54,1.69-27,1.23-47.91,5.24-67.88,13a142.74,142.74,0,0,0-81.68,81.69c-7.76,20-11.77,40.89-13,67.87-1.36,29.84-1.69,39.77-1.69,115.54s.33,85.71,1.69,115.54c1.23,27,5.24,47.92,13,67.88a142.74,142.74,0,0,0,81.68,81.69c20,7.76,40.91,11.77,67.88,13,29.87,1.36,39.8,1.68,115.54,1.68s85.67-.32,115.54-1.68c27-1.23,47.9-5.24,67.88-13a142.8,142.8,0,0,0,81.69-81.69c7.76-20,11.77-40.91,13-67.88,1.36-29.91,1.68-39.85,1.68-115.54s-.32-85.62-1.68-115.54c-1.23-27-5.24-47.9-13-67.87a142.8,142.8,0,0,0-81.69-81.69c-20-7.76-40.91-11.77-67.88-13C625.53,260.53,615.57,260.21,540,260.21Zm0,510.08c-74.86,0-83.72-.29-113.28-1.63-27.41-1.25-42.3-5.84-52.2-9.69A93.31,93.31,0,0,1,321,705.49c-3.85-9.92-8.43-24.81-9.68-52.21-1.35-29.56-1.63-38.43-1.63-113.28s.28-83.71,1.63-113.28c1.25-27.38,5.83-42.28,9.68-52.21A93.26,93.26,0,0,1,374.52,321c9.91-3.86,24.79-8.44,52.2-9.69,29.54-1.35,38.4-1.64,113.28-1.64s83.74.29,113.28,1.64c27.4,1.25,42.29,5.83,52.21,9.69A93.28,93.28,0,0,1,759,374.51c3.85,9.91,8.43,24.8,9.68,52.21,1.35,29.66,1.64,38.54,1.64,113.28s-.29,83.63-1.64,113.28c-1.25,27.42-5.83,42.31-9.68,52.21A93.33,93.33,0,0,1,705.49,759c-9.91,3.85-24.81,8.44-52.21,9.69C623.73,770,614.86,770.29,540,770.29Zm0-459.58c-74.86,0-83.71.29-113.24,1.64-27.25,1.24-42,5.79-51.88,9.62A92.28,92.28,0,0,0,322,374.87c-3.83,9.86-8.38,24.66-9.62,51.9-1.35,29.55-1.63,38.41-1.63,113.23s.28,83.69,1.63,113.24c1.24,27.25,5.79,42,9.62,51.89A92.26,92.26,0,0,0,374.88,758c9.83,3.82,24.62,8.38,51.88,9.62,29.54,1.34,38.41,1.63,113.24,1.63s83.7-.29,113.24-1.63c27.25-1.24,42-5.79,51.89-9.62A92.28,92.28,0,0,0,758,705.13c3.83-9.84,8.38-24.62,9.63-51.89,1.34-29.64,1.63-38.52,1.63-113.24s-.29-83.6-1.63-113.23c-1.25-27.27-5.8-42.06-9.63-51.9a92.3,92.3,0,0,0-52.9-52.9c-9.85-3.83-24.64-8.38-51.89-9.62C623.72,311,614.86,310.71,540,310.71Z" transform="translate(-3.8 -3.81)"/><path class="cls-1" d="M540,396.07A143.94,143.94,0,1,0,683.93,540,143.93,143.93,0,0,0,540,396.07m0,237.36A93.43,93.43,0,1,1,633.43,540,93.43,93.43,0,0,1,540,633.43" transform="translate(-3.8 -3.81)"/><path class="cls-1" d="M540,684.44c-79.64,0-144.43-64.8-144.43-144.44S460.36,395.57,540,395.57,684.43,460.36,684.43,540,619.64,684.44,540,684.44Zm0-287.87c-79.09,0-143.43,64.35-143.43,143.43S460.91,683.44,540,683.44,683.43,619.09,683.43,540,619.09,396.57,540,396.57Zm0,237.36A93.93,93.93,0,1,1,633.93,540,94,94,0,0,1,540,633.93Zm0-186.86A92.93,92.93,0,1,0,632.93,540,93,93,0,0,0,540,447.07Z" transform="translate(-3.8 -3.81)"/><path class="cls-1" d="M723.26,390.38a33.64,33.64,0,1,1-33.64-33.63,33.64,33.64,0,0,1,33.64,33.63" transform="translate(-3.8 -3.81)"/><path class="cls-1" d="M689.62,424.52a34.14,34.14,0,1,1,34.14-34.14A34.18,34.18,0,0,1,689.62,424.52Zm0-67.27a33.14,33.14,0,1,0,33.14,33.13A33.17,33.17,0,0,0,689.62,357.25Z" transform="translate(-3.8 -3.81)"/></svg>